<svg width="20" height="20" viewBox="0 0 20 20" fill="none" xmlns="http://www.w3.org/2000/svg">
<path d="M18.4543 2.62077C18.1543 2.36637 17.6831 2.32997 17.1959 2.52557H17.1951C16.6827 2.73117 2.69074 8.73277 2.12114 8.97797C2.01754 9.01397 1.11274 9.35157 1.20594 10.1036C1.28914 10.7816 2.01634 11.0624 2.10514 11.0948L5.66234 12.3128C5.89834 13.0984 6.76834 15.9968 6.96074 16.616C7.08074 17.002 7.27634 17.5092 7.61914 17.6136C7.91994 17.7296 8.21914 17.6236 8.41274 17.4716L10.5875 15.4544L14.0983 18.1924L14.1819 18.2424C14.4203 18.348 14.6487 18.4008 14.8667 18.4008C15.0351 18.4008 15.1967 18.3692 15.3511 18.306C15.8771 18.09 16.0875 17.5888 16.1095 17.532L18.7319 3.90117C18.8919 3.17317 18.6695 2.80277 18.4543 2.62077ZM8.79954 12.8L7.59954 16L6.39954 12L15.5995 5.19997L8.79954 12.8Z" fill="white"/>
</svg>
